<?xml version="1.0" encoding="UTF-8"?>
<svg id="Layer_1" xmlns="http://www.w3.org/2000/svg" version="1.1" xmlns:xlink="http://www.w3.org/1999/xlink" viewBox="0 0 40 40">
  <!-- Generator: Adobe Illustrator 29.5.1, SVG Export Plug-In . SVG Version: 2.1.0 Build 141)  -->
  <defs>
    <style>
      .st0 {
        fill: url(#linear-gradient2);
      }

      .st1 {
        fill: url(#linear-gradient10);
      }

      .st2 {
        fill: url(#linear-gradient1);
      }

      .st3 {
        fill: url(#linear-gradient9);
      }

      .st4 {
        fill: url(#linear-gradient18);
      }

      .st5 {
        fill: url(#linear-gradient8);
      }

      .st6 {
        fill: url(#linear-gradient11);
      }

      .st7 {
        fill: none;
      }

      .st8 {
        fill: url(#linear-gradient16);
      }

      .st9 {
        fill: url(#linear-gradient19);
      }

      .st10 {
        fill: url(#linear-gradient12);
      }

      .st11 {
        fill: url(#linear-gradient7);
      }

      .st12 {
        fill: url(#linear-gradient20);
      }

      .st13 {
        fill: url(#linear-gradient4);
      }

      .st14 {
        fill: url(#linear-gradient14);
      }

      .st15 {
        fill: url(#linear-gradient5);
      }

      .st16 {
        fill: url(#linear-gradient3);
      }

      .st17 {
        fill: url(#linear-gradient15);
      }

      .st18 {
        fill: url(#linear-gradient17);
      }

      .st19 {
        fill: url(#linear-gradient6);
      }

      .st20 {
        fill: url(#linear-gradient13);
      }

      .st21 {
        fill: url(#linear-gradient);
      }
    </style>
    <linearGradient id="linear-gradient" x1="1.3" y1="23.3" x2="25.1" y2="23.3" gradientTransform="translate(0 41.3) scale(1 -1)" gradientUnits="userSpaceOnUse">
      <stop offset="0" stop-color="#ffdb6e" stop-opacity=".2"/>
      <stop offset="1" stop-color="#ffbc5e" stop-opacity=".2"/>
    </linearGradient>
    <linearGradient id="linear-gradient1" x1="28.9" y1="13.6" x2="38.7" y2="13.6" gradientTransform="translate(0 41.3) scale(1 -1)" gradientUnits="userSpaceOnUse">
      <stop offset="0" stop-color="#ffdb6e" stop-opacity=".2"/>
      <stop offset="1" stop-color="#ffbc5e" stop-opacity=".2"/>
    </linearGradient>
    <linearGradient id="linear-gradient2" x1="28.9" y1="21.3" x2="38.7" y2="21.3" xlink:href="#linear-gradient1"/>
    <linearGradient id="linear-gradient3" y1="13.7" y2="13.7" xlink:href="#linear-gradient1"/>
    <linearGradient id="linear-gradient4" x1="3648.9" y1="3628.8" x2="4118.9" y2="4098.8" gradientTransform="translate(0 41.3) scale(1 -1)" gradientUnits="userSpaceOnUse">
      <stop offset=".3" stop-color="#ffdb6e"/>
      <stop offset="1" stop-color="#ffbc5e"/>
    </linearGradient>
    <linearGradient id="linear-gradient5" y1="23.4" y2="23.4" xlink:href="#linear-gradient1"/>
    <linearGradient id="linear-gradient6" x1="36.4" y1="23" x2="37.2" y2="23.8" gradientTransform="translate(0 41.3) scale(1 -1)" gradientUnits="userSpaceOnUse">
      <stop offset=".3" stop-color="#ffdb6e"/>
      <stop offset="1" stop-color="#ffbc5e"/>
    </linearGradient>
    <linearGradient id="linear-gradient7" x1="3645.2" y1="3632.6" x2="4115.2" y2="4102.6" gradientTransform="translate(0 41.3) scale(1 -1)" gradientUnits="userSpaceOnUse">
      <stop offset=".3" stop-color="#ffdb6e"/>
      <stop offset="1" stop-color="#ffbc5e"/>
    </linearGradient>
    <linearGradient id="linear-gradient8" y1="29.3" y2="29.3" xlink:href="#linear-gradient1"/>
    <linearGradient id="linear-gradient9" x1="3641.1" y1="3636.7" x2="4111" y2="4106.7" gradientTransform="translate(0 41.3) scale(1 -1)" gradientUnits="userSpaceOnUse">
      <stop offset=".3" stop-color="#ffdb6e"/>
      <stop offset="1" stop-color="#ffbc5e"/>
    </linearGradient>
    <linearGradient id="linear-gradient10" y1="25.9" y2="25.9" xlink:href="#linear-gradient1"/>
    <linearGradient id="linear-gradient11" x1="3642.8" y1="3635" x2="4112.7" y2="4105" gradientTransform="translate(0 41.3) scale(1 -1)" gradientUnits="userSpaceOnUse">
      <stop offset=".3" stop-color="#ffdb6e"/>
      <stop offset="1" stop-color="#ffbc5e"/>
    </linearGradient>
    <linearGradient id="linear-gradient12" x1="3633.9" y1="3643.9" x2="4103.9" y2="4113.9" gradientTransform="translate(0 41.3) scale(1 -1)" gradientUnits="userSpaceOnUse">
      <stop offset=".3" stop-color="#ffdb6e"/>
      <stop offset="1" stop-color="#ffbc5e"/>
    </linearGradient>
    <linearGradient id="linear-gradient13" x1="1.3" y1="17.1" y2="17.1" xlink:href="#linear-gradient"/>
    <linearGradient id="linear-gradient14" x1="3642.1" y1="3635.6" x2="4112.1" y2="4105.6" xlink:href="#linear-gradient12"/>
    <linearGradient id="linear-gradient15" y1="31.3" y2="31.3" xlink:href="#linear-gradient"/>
    <linearGradient id="linear-gradient16" x1="3629.8" y1="3647.9" x2="4099.8" y2="4117.9" xlink:href="#linear-gradient12"/>
    <linearGradient id="linear-gradient17" y1="15.1" y2="15.1" xlink:href="#linear-gradient"/>
    <linearGradient id="linear-gradient18" x1="3637.9" y1="3639.8" x2="4107.9" y2="4109.8" xlink:href="#linear-gradient12"/>
    <linearGradient id="linear-gradient19" y1="17.1" x2="25.1" y2="17.1" xlink:href="#linear-gradient"/>
    <linearGradient id="linear-gradient20" x1="3635.7" y1="3642.1" x2="4105.7" y2="4112.1" xlink:href="#linear-gradient12"/>
  </defs>
  <rect class="st7" x="28.9" y="30.8" width="9.8" height=".1"/>
  <rect class="st7" x="11.3" y="28.3" width="3.8" height="2.6"/>
  <path class="st21" d="M23.2,9.1H3.2c-1,0-1.9.8-1.9,1.9v12.6h18.5c.3,0,.6.3.6.6s-.2.6-.6.6H1.3v.2c0,1,.8,1.9,1.9,1.9h20c1,0,1.9-.8,1.9-1.9v-.2h-2.8c-.3,0-.6-.3-.6-.6s.2-.6.6-.6h2.8v-12.6c0-1-.8-1.9-1.9-1.9Z"/>
  <path class="st2" d="M33.8,27.1c-.3,0-.6.3-.6.6s.2.6.6.6.6-.3.6-.6-.3-.6-.6-.6Z"/>
  <path class="st0" d="M28.9,30.8h9.8V9.1h-9.8v21.7ZM33.8,29.5c-1,0-1.9-.9-1.9-1.9s.8-1.9,1.9-1.9,1.9.9,1.9,1.9-.9,1.9-1.9,1.9ZM36.8,18.5c-.3,0-.6-.3-.6-.6s.3-.6.6-.6.6.3.6.6-.3.6-.6.6ZM30.4,11.4h6.4c.3,0,.6.3.6.6s-.2.6-.6.6h-6.4c-.3,0-.6-.3-.6-.6s.2-.6.6-.6ZM30.4,14.8h6.4c.3,0,.6.3.6.6s-.2.6-.6.6h-6.4c-.3,0-.6-.3-.6-.6s.2-.6.6-.6Z"/>
  <path class="st16" d="M33.8,25.7c-1.1,0-1.9.9-1.9,1.9s.9,1.9,1.9,1.9,1.9-.9,1.9-1.9-.9-1.9-1.9-1.9ZM33.8,28.3c-.4,0-.6-.3-.6-.6s.3-.6.6-.6.6.3.6.6-.3.6-.6.6Z"/>
  <path class="st13" d="M33.8,25.7c-1.1,0-1.9.9-1.9,1.9s.9,1.9,1.9,1.9,1.9-.9,1.9-1.9-.9-1.9-1.9-1.9ZM33.8,28.3c-.4,0-.6-.3-.6-.6s.3-.6.6-.6.6.3.6.6-.3.6-.6.6Z"/>
  <path class="st15" d="M36.8,17.3c-.3,0-.6.3-.6.6s.3.6.6.6.6-.3.6-.6-.3-.6-.6-.6Z"/>
  <path class="st19" d="M36.8,17.3c-.3,0-.6.3-.6.6s.3.6.6.6.6-.3.6-.6-.3-.6-.6-.6Z"/>
  <path class="st11" d="M39.4,7.9h-11.1c-.4,0-.6.3-.6.6v23c0,.4.3.6.6.6h11.1c.4,0,.6-.3.6-.6V8.5c0-.4-.3-.6-.6-.6ZM38.7,30.8h0c0,.1-9.8.1-9.8.1h0V9.1h9.8v21.7Z"/>
  <path class="st5" d="M30.4,12.6h6.4c.4,0,.6-.3.6-.6s-.3-.6-.6-.6h-6.4c-.4,0-.6.3-.6.6s.3.6.6.6Z"/>
  <path class="st3" d="M30.4,12.6h6.4c.4,0,.6-.3.6-.6s-.3-.6-.6-.6h-6.4c-.4,0-.6.3-.6.6s.3.6.6.6Z"/>
  <path class="st1" d="M30.4,16h6.4c.4,0,.6-.3.6-.6s-.3-.6-.6-.6h-6.4c-.4,0-.6.3-.6.6s.3.6.6.6Z"/>
  <path class="st6" d="M30.4,16h6.4c.4,0,.6-.3.6-.6s-.3-.6-.6-.6h-6.4c-.4,0-.6.3-.6.6s.3.6.6.6Z"/>
  <path class="st10" d="M23.2,7.9H3.2c-1.8,0-3.2,1.4-3.2,3.2v14c0,1.8,1.4,3.2,3.2,3.2h6.8v2.6h-3.2c-.4,0-.6.3-.6.6s.3.6.6.6h12.8c.4,0,.6-.3.6-.6s-.3-.6-.6-.6h-3.2v-2.6h6.8c1.8,0,3.2-1.4,3.2-3.2v-14c0-1.8-1.4-3.2-3.2-3.2ZM15.1,30.9h-3.8v-2.6h3.8v2.6ZM25.1,11v16.4H1.3V9h23.8v2Z"/>
  <path class="st20" d="M21.7,24.2c0,.3.3.6.6.6h2.8v-1.2h-2.8c-.4,0-.6.3-.6.6Z"/>
  <path class="st14" d="M21.7,24.2c0,.3.3.6.6.6h2.8v-1.2h-2.8c-.4,0-.6.3-.6.6Z"/>
  <path class="st17" d="M1.3,11c0-1.1.9-1.9,1.9-1.9h20c1.1,0,1.9.9,1.9,1.9v-2H1.3v2Z"/>
  <path class="st8" d="M1.3,11c0-1.1.9-1.9,1.9-1.9h20c1.1,0,1.9.9,1.9,1.9v-2H1.3v2Z"/>
  <path class="st18" d="M23.2,26.9H3.2c-1.1,0-1.9-.9-1.9-1.9v2.4h23.8v-2.4c0,1.1-.9,1.9-1.9,1.9Z"/>
  <path class="st4" d="M23.2,26.9H3.2c-1.1,0-1.9-.9-1.9-1.9v2.4h23.8v-2.4c0,1.1-.9,1.9-1.9,1.9Z"/>
  <path class="st9" d="M20.4,24.2c0-.3-.3-.6-.6-.6H1.3v1.2h18.5c.4,0,.6-.3.6-.6Z"/>
  <path class="st12" d="M20.4,24.2c0-.3-.3-.6-.6-.6H1.3v1.2h18.5c.4,0,.6-.3.6-.6Z"/>
</svg>